<?xml version="1.0" standalone="no"?>
<!DOCTYPE svg PUBLIC "-//W3C//DTD SVG 20010904//EN"
 "http://www.w3.org/TR/2001/REC-SVG-20010904/DTD/svg10.dtd">
<svg version="1.0" xmlns="http://www.w3.org/2000/svg"
 width="1020.000000pt" height="380.000000pt" viewBox="0 0 1020.000000 380.000000"
 preserveAspectRatio="xMidYMid meet">

<g transform="translate(0.000000,380.000000) scale(0.100000,-0.100000)"
fill="#000000" stroke="none">
<path d="M850 2213 c0 -971 -2 -933 72 -1075 122 -236 403 -415 728 -464 506
-76 998 157 1147 543 24 63 27 85 34 283 4 118 8 522 8 898 l1 682 -45 0 -45
0 0 -858 c0 -951 3 -910 -67 -1051 -41 -86 -159 -212 -256 -275 -76 -50 -191
-99 -292 -126 -500 -132 -1046 96 -1176 491 l-24 74 0 873 0 872 -42 0 -43 0
0 -867z"/>
<path d="M4172 3068 c-9 -9 -12 -292 -12 -1210 l0 -1198 40 0 40 0 0 584 0
584 653 5 c702 5 707 5 867 61 249 86 433 281 463 489 38 267 -147 522 -461
637 -159 58 -190 60 -916 60 -502 0 -665 -3 -674 -12z m1391 -73 c319 -56 536
-238 578 -485 35 -213 -135 -444 -402 -544 -143 -54 -165 -55 -854 -58 l-640
-3 -3 553 -2 552 619 0 c503 0 634 -3 704 -15z"/>
<path d="M8274 3072 c-10 -6 -1234 -2394 -1234 -2407 0 -3 19 -5 43 -5 l43 0
585 1144 c321 629 587 1141 591 1138 4 -4 268 -518 587 -1142 l580 -1135 46
-3 c25 -2 45 -1 45 1 0 9 -1217 2387 -1229 2401 -14 17 -39 20 -57 8z"/>
</g>
</svg>
